<mxfile host="app.diagrams.net" agent="Mozilla/5.0 (Windows NT 10.0; Win64; x64) AppleWebKit/537.36 (KHTML, like Gecko) Chrome/138.0.0.0 Safari/537.36 Edg/138.0.0.0" version="28.0.4">
  <diagram id="R2lEEEUBdFMjLlhIrx00" name="Page-1">
    <mxGraphModel dx="1034" dy="668" grid="1" gridSize="10" guides="1" tooltips="1" connect="1" arrows="1" fold="1" page="1" pageScale="1" pageWidth="850" pageHeight="1100" math="0" shadow="0" extFonts="Permanent Marker^https://fonts.googleapis.com/css?family=Permanent+Marker">
      <root>
        <mxCell id="0" />
        <mxCell id="1" parent="0" />
        <mxCell id="OnU-D66EaQQ06rdmp6Sh-34" style="edgeStyle=orthogonalEdgeStyle;curved=1;rounded=0;orthogonalLoop=1;jettySize=auto;html=1;entryX=1;entryY=0.5;entryDx=0;entryDy=0;endArrow=ERone;endFill=0;startArrow=ERmany;startFill=0;" parent="1" source="OnU-D66EaQQ06rdmp6Sh-1" target="OnU-D66EaQQ06rdmp6Sh-2" edge="1">
          <mxGeometry relative="1" as="geometry" />
        </mxCell>
        <mxCell id="xUjZqIkKKxinZ77WY2TX-2" style="edgeStyle=orthogonalEdgeStyle;rounded=0;orthogonalLoop=1;jettySize=auto;html=1;exitX=0.5;exitY=0;exitDx=0;exitDy=0;curved=1;startArrow=ERmany;startFill=0;endArrow=ERone;endFill=0;entryX=0.5;entryY=1;entryDx=0;entryDy=0;" parent="1" source="OnU-D66EaQQ06rdmp6Sh-1" target="xUjZqIkKKxinZ77WY2TX-1" edge="1">
          <mxGeometry relative="1" as="geometry">
            <mxPoint x="510" y="200" as="targetPoint" />
          </mxGeometry>
        </mxCell>
        <mxCell id="OnU-D66EaQQ06rdmp6Sh-1" value="BIKE" style="rounded=1;whiteSpace=wrap;html=1;fillColor=#dae8fc;strokeColor=#6c8ebf;" parent="1" vertex="1">
          <mxGeometry x="460" y="264" width="62.5" height="40" as="geometry" />
        </mxCell>
        <mxCell id="OnU-D66EaQQ06rdmp6Sh-2" value="SHOP" style="rounded=1;whiteSpace=wrap;html=1;fillColor=#dae8fc;strokeColor=#6c8ebf;" parent="1" vertex="1">
          <mxGeometry x="190" y="154" width="60" height="50" as="geometry" />
        </mxCell>
        <mxCell id="OnU-D66EaQQ06rdmp6Sh-3" value="CUSTOMER" style="rounded=1;whiteSpace=wrap;html=1;fillColor=#dae8fc;strokeColor=#6c8ebf;" parent="1" vertex="1">
          <mxGeometry x="697.5" y="234" width="92.5" height="40" as="geometry" />
        </mxCell>
        <mxCell id="OnU-D66EaQQ06rdmp6Sh-40" style="edgeStyle=orthogonalEdgeStyle;curved=1;rounded=0;orthogonalLoop=1;jettySize=auto;html=1;exitX=1;exitY=0.5;exitDx=0;exitDy=0;entryX=0.5;entryY=1;entryDx=0;entryDy=0;endArrow=ERone;endFill=0;startArrow=ERmany;startFill=0;" parent="1" source="OnU-D66EaQQ06rdmp6Sh-4" target="OnU-D66EaQQ06rdmp6Sh-3" edge="1">
          <mxGeometry relative="1" as="geometry" />
        </mxCell>
        <mxCell id="OnU-D66EaQQ06rdmp6Sh-41" style="edgeStyle=orthogonalEdgeStyle;curved=1;rounded=0;orthogonalLoop=1;jettySize=auto;html=1;exitX=0;exitY=0.25;exitDx=0;exitDy=0;entryX=0.5;entryY=1;entryDx=0;entryDy=0;endArrow=ERone;endFill=0;startArrow=ERmany;startFill=0;" parent="1" source="OnU-D66EaQQ06rdmp6Sh-4" target="OnU-D66EaQQ06rdmp6Sh-1" edge="1">
          <mxGeometry relative="1" as="geometry" />
        </mxCell>
        <mxCell id="OnU-D66EaQQ06rdmp6Sh-4" value="RENTAL" style="rounded=1;whiteSpace=wrap;html=1;fillColor=#dae8fc;strokeColor=#6c8ebf;" parent="1" vertex="1">
          <mxGeometry x="600" y="414" width="75" height="50" as="geometry" />
        </mxCell>
        <mxCell id="OnU-D66EaQQ06rdmp6Sh-43" style="edgeStyle=orthogonalEdgeStyle;curved=1;rounded=0;orthogonalLoop=1;jettySize=auto;html=1;exitX=0;exitY=0.5;exitDx=0;exitDy=0;entryX=1.009;entryY=0.64;entryDx=0;entryDy=0;startArrow=ERmany;startFill=0;endArrow=ERone;endFill=0;entryPerimeter=0;" parent="1" source="OnU-D66EaQQ06rdmp6Sh-5" target="OnU-D66EaQQ06rdmp6Sh-6" edge="1">
          <mxGeometry relative="1" as="geometry" />
        </mxCell>
        <mxCell id="OnU-D66EaQQ06rdmp6Sh-5" value="DAMAGE" style="rounded=1;whiteSpace=wrap;html=1;fillColor=#dae8fc;strokeColor=#6c8ebf;" parent="1" vertex="1">
          <mxGeometry x="410" y="524" width="73.75" height="40" as="geometry" />
        </mxCell>
        <mxCell id="OnU-D66EaQQ06rdmp6Sh-37" style="edgeStyle=orthogonalEdgeStyle;curved=1;rounded=0;orthogonalLoop=1;jettySize=auto;html=1;exitX=0;exitY=0.75;exitDx=0;exitDy=0;entryX=0.25;entryY=0;entryDx=0;entryDy=0;endArrow=ERone;endFill=0;startArrow=ERmany;startFill=0;" parent="1" source="OnU-D66EaQQ06rdmp6Sh-6" target="OnU-D66EaQQ06rdmp6Sh-7" edge="1">
          <mxGeometry relative="1" as="geometry">
            <Array as="points">
              <mxPoint x="160" y="452" />
              <mxPoint x="160" y="450" />
              <mxPoint x="60" y="450" />
              <mxPoint x="60" y="10" />
              <mxPoint x="510" y="10" />
            </Array>
          </mxGeometry>
        </mxCell>
        <mxCell id="OnU-D66EaQQ06rdmp6Sh-62" style="edgeStyle=orthogonalEdgeStyle;curved=1;rounded=0;orthogonalLoop=1;jettySize=auto;html=1;exitX=0;exitY=0.5;exitDx=0;exitDy=0;entryX=0;entryY=0.5;entryDx=0;entryDy=0;endArrow=ERmany;endFill=0;startArrow=ERone;startFill=0;" parent="1" source="OnU-D66EaQQ06rdmp6Sh-6" target="OnU-D66EaQQ06rdmp6Sh-2" edge="1">
          <mxGeometry relative="1" as="geometry">
            <Array as="points">
              <mxPoint x="110" y="439" />
              <mxPoint x="110" y="179" />
            </Array>
          </mxGeometry>
        </mxCell>
        <mxCell id="1mXV8jZVVZ6Ezc9BNpnW-1" style="edgeStyle=orthogonalEdgeStyle;rounded=0;orthogonalLoop=1;jettySize=auto;html=1;exitX=1;exitY=0.25;exitDx=0;exitDy=0;entryX=0;entryY=0.5;entryDx=0;entryDy=0;curved=1;startArrow=ERone;startFill=0;endArrow=ERmany;endFill=0;" parent="1" source="OnU-D66EaQQ06rdmp6Sh-6" target="OnU-D66EaQQ06rdmp6Sh-4" edge="1">
          <mxGeometry relative="1" as="geometry" />
        </mxCell>
        <mxCell id="OnU-D66EaQQ06rdmp6Sh-6" value="EMP" style="rounded=1;whiteSpace=wrap;html=1;fillColor=#dae8fc;strokeColor=#6c8ebf;" parent="1" vertex="1">
          <mxGeometry x="180" y="414" width="90" height="50" as="geometry" />
        </mxCell>
        <mxCell id="OnU-D66EaQQ06rdmp6Sh-7" value="ADDRESS" style="rounded=1;whiteSpace=wrap;html=1;fillColor=#dae8fc;strokeColor=#6c8ebf;" parent="1" vertex="1">
          <mxGeometry x="490" y="44" width="80" height="40" as="geometry" />
        </mxCell>
        <mxCell id="OnU-D66EaQQ06rdmp6Sh-13" value="" style="edgeStyle=entityRelationEdgeStyle;fontSize=12;html=1;endArrow=ERone;startArrow=ERmany;rounded=0;curved=1;entryX=0;entryY=0.75;entryDx=0;entryDy=0;exitX=1;exitY=0.5;exitDx=0;exitDy=0;endFill=0;" parent="1" source="OnU-D66EaQQ06rdmp6Sh-5" target="OnU-D66EaQQ06rdmp6Sh-4" edge="1">
          <mxGeometry width="100" height="100" relative="1" as="geometry">
            <mxPoint x="538.13" y="474" as="sourcePoint" />
            <mxPoint x="740" y="454" as="targetPoint" />
            <Array as="points">
              <mxPoint x="650" y="474" />
            </Array>
          </mxGeometry>
        </mxCell>
        <mxCell id="OnU-D66EaQQ06rdmp6Sh-16" value="" style="edgeStyle=entityRelationEdgeStyle;fontSize=12;html=1;endArrow=ERmany;rounded=0;curved=1;endFill=0;startArrow=ERone;startFill=0;entryX=1;entryY=0.25;entryDx=0;entryDy=0;exitX=0;exitY=0.5;exitDx=0;exitDy=0;" parent="1" source="OnU-D66EaQQ06rdmp6Sh-7" target="OnU-D66EaQQ06rdmp6Sh-2" edge="1">
          <mxGeometry width="100" height="100" relative="1" as="geometry">
            <mxPoint x="415" y="74" as="sourcePoint" />
            <mxPoint x="240" y="174" as="targetPoint" />
            <Array as="points">
              <mxPoint x="530" y="104" />
              <mxPoint x="380" y="104" />
              <mxPoint x="310" y="104" />
              <mxPoint x="245" y="514" />
              <mxPoint x="285" y="94" />
            </Array>
          </mxGeometry>
        </mxCell>
        <mxCell id="OnU-D66EaQQ06rdmp6Sh-19" value="" style="edgeStyle=entityRelationEdgeStyle;fontSize=12;html=1;endArrow=ERmany;rounded=0;curved=1;endFill=0;startArrow=ERone;startFill=0;entryX=0;entryY=0.25;entryDx=0;entryDy=0;exitX=0;exitY=0.5;exitDx=0;exitDy=0;entryPerimeter=0;" parent="1" target="OnU-D66EaQQ06rdmp6Sh-3" edge="1">
          <mxGeometry width="100" height="100" relative="1" as="geometry">
            <mxPoint x="570" y="64" as="sourcePoint" />
            <mxPoint x="450" y="214" as="targetPoint" />
            <Array as="points">
              <mxPoint x="610" y="104" />
              <mxPoint x="460" y="104" />
              <mxPoint x="390" y="104" />
              <mxPoint x="325" y="514" />
              <mxPoint x="365" y="94" />
            </Array>
          </mxGeometry>
        </mxCell>
        <mxCell id="OnU-D66EaQQ06rdmp6Sh-22" value="lives_at" style="shape=rhombus;perimeter=rhombusPerimeter;whiteSpace=wrap;html=1;align=center;" parent="1" vertex="1">
          <mxGeometry x="590" y="124" width="80" height="50" as="geometry" />
        </mxCell>
        <mxCell id="OnU-D66EaQQ06rdmp6Sh-24" value="is_located" style="shape=rhombus;perimeter=rhombusPerimeter;whiteSpace=wrap;html=1;align=center;" parent="1" vertex="1">
          <mxGeometry x="345" y="84" width="80" height="50" as="geometry" />
        </mxCell>
        <mxCell id="OnU-D66EaQQ06rdmp6Sh-25" value="" style="edgeStyle=entityRelationEdgeStyle;fontSize=12;html=1;endArrow=ERmany;rounded=0;curved=1;endFill=0;startArrow=ERone;startFill=0;exitX=1;exitY=0.75;exitDx=0;exitDy=0;" parent="1" source="OnU-D66EaQQ06rdmp6Sh-2" edge="1">
          <mxGeometry width="100" height="100" relative="1" as="geometry">
            <mxPoint x="270" y="349" as="sourcePoint" />
            <mxPoint x="180" y="424" as="targetPoint" />
            <Array as="points">
              <mxPoint x="450" y="154" />
              <mxPoint x="380" y="154" />
              <mxPoint x="315" y="564" />
              <mxPoint x="130" y="374" />
              <mxPoint x="140" y="374" />
              <mxPoint x="120" y="374" />
              <mxPoint x="355" y="144" />
            </Array>
          </mxGeometry>
        </mxCell>
        <mxCell id="OnU-D66EaQQ06rdmp6Sh-36" value="works_at" style="shape=rhombus;perimeter=rhombusPerimeter;whiteSpace=wrap;html=1;align=center;" parent="1" vertex="1">
          <mxGeometry x="210" y="274" width="80" height="50" as="geometry" />
        </mxCell>
        <mxCell id="OnU-D66EaQQ06rdmp6Sh-42" value="lives_at" style="shape=rhombus;perimeter=rhombusPerimeter;whiteSpace=wrap;html=1;align=center;" parent="1" vertex="1">
          <mxGeometry x="40" y="94" width="80" height="50" as="geometry" />
        </mxCell>
        <mxCell id="OnU-D66EaQQ06rdmp6Sh-49" value="registered_at" style="shape=rhombus;perimeter=rhombusPerimeter;whiteSpace=wrap;html=1;align=center;" parent="1" vertex="1">
          <mxGeometry x="315" y="214" width="95" height="50" as="geometry" />
        </mxCell>
        <mxCell id="OnU-D66EaQQ06rdmp6Sh-50" value="repairs" style="shape=rhombus;perimeter=rhombusPerimeter;whiteSpace=wrap;html=1;align=center;" parent="1" vertex="1">
          <mxGeometry x="305" y="474" width="80" height="50" as="geometry" />
        </mxCell>
        <mxCell id="OnU-D66EaQQ06rdmp6Sh-51" value="occurs" style="shape=rhombus;perimeter=rhombusPerimeter;whiteSpace=wrap;html=1;align=center;" parent="1" vertex="1">
          <mxGeometry x="510" y="474" width="80" height="50" as="geometry" />
        </mxCell>
        <mxCell id="OnU-D66EaQQ06rdmp6Sh-53" value="rents" style="shape=rhombus;perimeter=rhombusPerimeter;whiteSpace=wrap;html=1;align=center;" parent="1" vertex="1">
          <mxGeometry x="698.5" y="314" width="80" height="50" as="geometry" />
        </mxCell>
        <mxCell id="OnU-D66EaQQ06rdmp6Sh-55" value="is_rented" style="shape=rhombus;perimeter=rhombusPerimeter;whiteSpace=wrap;html=1;align=center;" parent="1" vertex="1">
          <mxGeometry x="480" y="364" width="80" height="50" as="geometry" />
        </mxCell>
        <mxCell id="OnU-D66EaQQ06rdmp6Sh-60" style="edgeStyle=orthogonalEdgeStyle;curved=1;rounded=0;orthogonalLoop=1;jettySize=auto;html=1;exitX=0.75;exitY=1;exitDx=0;exitDy=0;entryX=0.25;entryY=1;entryDx=0;entryDy=0;startArrow=ERone;startFill=0;endArrow=ERmany;endFill=0;" parent="1" source="OnU-D66EaQQ06rdmp6Sh-6" target="OnU-D66EaQQ06rdmp6Sh-6" edge="1">
          <mxGeometry relative="1" as="geometry">
            <Array as="points">
              <mxPoint x="248" y="494" />
              <mxPoint x="260" y="494" />
              <mxPoint x="260" y="574" />
              <mxPoint x="180" y="574" />
              <mxPoint x="180" y="494" />
              <mxPoint x="203" y="494" />
            </Array>
          </mxGeometry>
        </mxCell>
        <mxCell id="OnU-D66EaQQ06rdmp6Sh-61" value="reports_to" style="shape=rhombus;perimeter=rhombusPerimeter;whiteSpace=wrap;html=1;align=center;" parent="1" vertex="1">
          <mxGeometry x="180" y="539" width="80" height="50" as="geometry" />
        </mxCell>
        <mxCell id="OnU-D66EaQQ06rdmp6Sh-63" value="is_manager" style="shape=rhombus;perimeter=rhombusPerimeter;whiteSpace=wrap;html=1;align=center;" parent="1" vertex="1">
          <mxGeometry x="80" y="214" width="80" height="50" as="geometry" />
        </mxCell>
        <mxCell id="OnU-D66EaQQ06rdmp6Sh-64" value="&lt;font style=&quot;font-size: 31px;&quot;&gt;&lt;b&gt;Bike-Rental&lt;/b&gt;&lt;/font&gt;" style="text;html=1;whiteSpace=wrap;overflow=hidden;rounded=0;" parent="1" vertex="1">
          <mxGeometry x="610" width="180" height="120" as="geometry" />
        </mxCell>
        <mxCell id="xUjZqIkKKxinZ77WY2TX-1" value="BIKE_TYPE" style="rounded=1;whiteSpace=wrap;html=1;fillColor=#dae8fc;strokeColor=#6c8ebf;" parent="1" vertex="1">
          <mxGeometry x="460" y="134" width="72.5" height="29" as="geometry" />
        </mxCell>
        <mxCell id="xUjZqIkKKxinZ77WY2TX-3" value="belongs_to" style="shape=rhombus;perimeter=rhombusPerimeter;whiteSpace=wrap;html=1;align=center;" parent="1" vertex="1">
          <mxGeometry x="452.5" y="184" width="80" height="50" as="geometry" />
        </mxCell>
        <mxCell id="1mXV8jZVVZ6Ezc9BNpnW-2" value="responsible" style="shape=rhombus;perimeter=rhombusPerimeter;whiteSpace=wrap;html=1;align=center;" parent="1" vertex="1">
          <mxGeometry x="390" y="410" width="80" height="50" as="geometry" />
        </mxCell>
      </root>
    </mxGraphModel>
  </diagram>
</mxfile>
